# File created by Blade
# Date/Time:  Wed Jan 21 19:03:07 2015
# Frame Rate: 120.000 fps
#------------------------------------------------------
:FULLY-SPECIFIED
:DEGREES
2620
root -4.993109 32.581369 -4.119569 41.885847 8.906984 1.006444
RightUpLeg -31.849698 -13.938411 7.390376
RightLeg -5.122245 -0.000000 0.000000
RightFoot -9.628072 4.577578 21.695056
RightToeBase 23.678897 -0.000000 -0.000000
LeftUpLeg -34.607049 3.130561 -0.633275
LeftLeg -1.097677 -0.000000 0.000000
LeftFoot -9.222332 -7.249817 -8.842404
LeftToeBase 9.454464 -0.000000 -0.000000
Spine -43.783811 -2.614858 2.283109
RightShoulder -20.422781 16.979489 -50.228462
RightArm 2.819875 -14.697950 36.028005
RightForeArm 3.525040 0.000000 -8.986118
RightHand 6.297508 -0.000000 6.628869
RightHandThumb1 -24.326973 -0.000000 -32.862282
LeftShoulder -14.132236 0.179941 39.827708
LeftArm 22.950792 -16.586831 -30.783057
LeftForeArm 22.816810 -0.000000 -3.239010
LeftHand -26.474529 -0.000000 5.983769
LeftHandThumb1 -26.253704 0.000000 33.147579
Head 1.951374 -3.185619 3.682414
2621
root -5.015472 32.579801 -4.142650 41.919574 8.888249 1.071195
RightUpLeg -31.882746 -14.177999 7.511429
RightLeg -5.287149 -0.000000 0.000000
RightFoot -9.430038 4.868296 21.898753
RightToeBase 23.757588 -0.000000 -0.000000
LeftUpLeg -34.692540 3.183817 -0.715667
LeftLeg -1.067545 -0.000000 0.000000
LeftFoot -9.175923 -7.328614 -8.801759
LeftToeBase 9.349336 -0.000000 -0.000000
Spine -43.770237 -2.633449 2.227972
RightShoulder -20.510099 17.042396 -50.362342
RightArm 2.729560 -14.750888 35.909720
RightForeArm 3.387892 -0.000000 -9.037087
RightHand 6.231245 -0.000000 6.824428
RightHandThumb1 -24.326973 -0.000000 -32.862282
LeftShoulder -14.253724 0.108931 39.817537
LeftArm 22.753283 -16.784203 -30.717512
LeftForeArm 23.043029 -0.000000 -3.279989
LeftHand -26.470434 -0.000000 5.604019
LeftHandThumb1 -26.253704 0.000000 33.147579
Head 1.802841 -3.128709 3.555923
2622
root -5.038019 32.579879 -4.167179 41.953739 8.819902 1.120118
RightUpLeg -31.918677 -14.275879 7.524709
RightLeg -5.408814 -0.000000 0.000000
RightFoot -9.240356 5.122091 22.075658
RightToeBase 23.781556 -0.000000 -0.000000
LeftUpLeg -34.770935 3.246761 -0.796517
LeftLeg -1.054860 -0.000000 0.000000
LeftFoot -9.140741 -7.325621 -8.828375
LeftToeBase 9.357319 -0.000000 -0.000000
Spine -43.752899 -2.587958 2.127542
RightShoulder -20.613980 17.103090 -50.460326
RightArm 2.620310 -14.826697 35.738419
RightForeArm 3.141377 -0.000000 -9.036003
RightHand 6.094839 -0.000000 6.913299
RightHandThumb1 -24.326973 -0.000000 -32.862282
LeftShoulder -14.371401 0.005081 39.819129
LeftArm 22.570645 -16.930561 -30.670220
LeftForeArm 23.245338 0.000000 -3.300851
LeftHand -26.702533 -0.000000 5.317965
LeftHandThumb1 -26.253704 0.000000 33.147579
Head 1.654392 -3.090530 3.433405
2623
root -5.059397 32.581621 -4.190776 41.973135 8.701569 1.133693
RightUpLeg -32.010247 -14.364624 7.570943
RightLeg -5.415360 -0.000000 0.000000
RightFoot -9.074644 5.403746 22.271474
RightToeBase 23.738147 -0.000000 -0.000000
LeftUpLeg -34.823363 3.331238 -0.861312
LeftLeg -1.053729 -0.000000 0.000000
LeftFoot -9.117793 -7.278875 -8.830593
LeftToeBase 9.358417 -0.000000 -0.000000
Spine -43.732031 -2.485194 2.033212
RightShoulder -20.713750 17.124695 -50.552229
RightArm 2.593946 -14.932939 35.563549
RightForeArm 3.102492 -0.000000 -9.099628
RightHand 5.754083 -0.000000 7.342975
RightHandThumb1 -24.326973 -0.000000 -32.862282
LeftShoulder -14.472339 -0.073917 39.797249
LeftArm 22.378602 -17.028827 -30.590065
LeftForeArm 23.335368 -0.000000 -3.354148
LeftHand -26.939422 -0.000000 5.147909
LeftHandThumb1 -26.253704 0.000000 33.147579
Head 1.526341 -3.056928 3.299910
2624
root -5.079532 32.583835 -4.214606 41.965586 8.504285 1.143384
RightUpLeg -32.031814 -14.274671 7.447412
RightLeg -5.449157 -0.000000 0.000000
RightFoot -8.889515 5.616481 22.384009
RightToeBase 23.477335 -0.000000 -0.000000
LeftUpLeg -34.835448 3.470228 -0.977999
LeftLeg -1.066745 -0.000000 0.000000
LeftFoot -9.102988 -7.204596 -8.814484
LeftToeBase 9.421221 -0.000000 -0.000000
Spine -43.681855 -2.329516 1.889347
RightShoulder -20.796650 17.214599 -50.657046
RightArm 2.495813 -15.020546 35.394341
RightForeArm 2.934905 -0.000000 -9.182248
RightHand 5.676907 -0.000000 7.404317
RightHandThumb1 -24.326973 -0.000000 -32.862282
LeftShoulder -14.557569 -0.190113 39.789719
LeftArm 22.131100 -17.136278 -30.505048
LeftForeArm 23.506820 -0.000000 -3.415488
LeftHand -27.209278 -0.000000 4.891223
LeftHandThumb1 -26.253704 0.000000 33.147579
Head 1.399933 -3.015767 3.182285
2625
root -5.100529 32.587497 -4.236604 41.947460 8.272897 1.119505
RightUpLeg -32.054385 -14.106514 7.305289
RightLeg -5.461499 -0.000000 0.000000
RightFoot -8.714152 5.776780 22.552713
RightToeBase 23.276972 -0.000000 -0.000000
LeftUpLeg -34.833113 3.656650 -1.091058
LeftLeg -1.083263 -0.000000 0.000000
LeftFoot -9.079907 -7.121544 -8.790881
LeftToeBase 9.406329 -0.000000 -0.000000
Spine -43.628757 -2.130441 1.747913
RightShoulder -20.882250 17.329967 -50.752338
RightArm 2.378096 -15.095394 35.218843
RightForeArm 2.860702 0.000000 -9.212828
RightHand 5.420926 -0.000000 7.576403
RightHandThumb1 -24.326973 -0.000000 -32.862282
LeftShoulder -14.643867 -0.229810 39.764994
LeftArm 21.924542 -17.271885 -30.429417
LeftForeArm 23.622822 -0.000000 -3.477814
LeftHand -27.317468 -0.000000 4.523673
LeftHandThumb1 -26.253704 0.000000 33.147579
Head 1.285203 -2.975631 3.063177
